# xmcd
#
# Track frame offsets:
#	150
#	34172
#	68674
#	87466
#	141989
#	161662
#	184735
#	249138
#	269201
#	287154
#
# Disc length: 4496 seconds
#
# Revision: 0
# Processed by: cddbd v1.5.1PL2 Copyright (c) Steve Scherf et al.
# Submitted via: audiograbber 1.83.01
#
DISCID=95118e0a
DTITLE=g - g
DYEAR=1900
DGENRE=gg
TTITLE0=ÞARKI -  1
TTITLE1=ÞARKI -  2
TTITLE2=ÞARKI -  3
TTITLE3=ÞARKI -  4
TTITLE4=ÞARKI -  5
TTITLE5=ÞARKI -  6
TTITLE6=ÞARKI -  7
TTITLE7=ÞARKI -  8
TTITLE8=ÞARKI -  9
TTITLE9=ÞARKI - 10
EXTD=gggggg
EXTT0=g
EXTT1=
EXTT2=
EXTT3=
EXTT4=
EXTT5=
EXTT6=
EXTT7=
EXTT8=
EXTT9=
PLAYORDER=
